<svg id="Capa_1" data-name="Capa 1" xmlns="http://www.w3.org/2000/svg" viewBox="0 0 217.05 214.03"><defs><style>.cls-1{fill:#fff;}</style></defs><title>Icono</title><path class="cls-1" d="M236.06,164.94c1.73,9-3.32,17.31-9.42,25.2a20.56,20.56,0,0,1-3.47,3.56c-1.77,1.4-3.68,3.48-6.11,2.3-2.18-1.06-1.21-3.62-1.14-5.49.48-12.69-6.42-21.65-15.19-29.4-9.91-8.76-21.68-14.1-34.24-18.23-17.24-5.66-35-7.84-52.8-10.77-18.3-3-36.84-6.15-53.78-14.41-10.31-5-20-11.46-21.36-24.18C37.37,82.59,42,73.21,48.93,64.94q1.45-1.72,3-3.34c1.89-2,4-3.86,6.92-3.07s2.31,3.69,3,5.79C65.37,74.66,73,81.42,82,86.69c16,9.36,33.87,13.25,51.84,16.76,22,4.28,44,8.52,65.13,16,9.42,3.33,18.26,7.88,25.48,15C233,142.91,236.3,151.22,236.06,164.94Z" transform="translate(-28.81 -21.24)"/><path class="cls-1" d="M199.2,201.75c-.23,13.41-7.79,22.14-18.62,28.54-3.36,2-7.26,3-10.87,4.63-1.84.81-3.33.06-4.57-1s-.94-2.52-.44-4.09c4.15-13-1.89-22.28-15.4-26.56-11.6-3.67-23.52-3.21-35.25-4.84-18.3-2.54-36.84-4.42-53.17-14-19.72-11.58-33.18-30.5-32-54.48.12-2.48.62-4.94,3.13-5.7,2.88-.88,3.75,1.8,5,3.72,7.7,11.61,18.19,19.86,30.68,25.89,16.39,7.91,33.89,9,51.65,9.72,18,.71,36.2.64,53.62,6C188.26,174.2,198.92,185.57,199.2,201.75Z" transform="translate(-28.81 -21.24)"/><path class="cls-1" d="M100.2,21.27c2.52-.19,4.69.71,5.51,2.86,3.93,10.39,13.61,13,22.42,16.2,14.73,5.38,30.5,7,45.52,11.28,18.87,5.43,37.64,11.53,53,24.41,10.26,8.59,15.56,20.34,18.19,33.29.58,2.84,1.79,5.67.25,8.73-1.26,2.51-2.71,2.52-4,.51-9.94-16-25.66-23.93-42.51-29.82-11.47-4-23.46-6.34-35.5-8.3C145.38,77.52,127.54,75,110,71.1A47.43,47.43,0,0,1,83.52,55.55C76.43,47.14,78.1,33.1,87.32,27A36.88,36.88,0,0,1,100.2,21.27Z" transform="translate(-28.81 -21.24)"/></svg>